<?xml version="1.0" encoding="UTF-8"?>
<svg width="128" height="128" viewBox="0 0 1024 1024" xmlns="http://www.w3.org/2000/svg">
  <path d="M832 64H192c-35.2 0-64 28.8-64 64v768c0 35.2 28.8 64 64 64h640c35.2 0 64-28.8 64-64V128c0-35.2-28.8-64-64-64z m0 800c0 16-12.8 32-32 32H224c-19.2 0-32-16-32-32V160c0-16 12.8-32 32-32h576c19.2 0 32 16 32 32v704z" fill="currentColor"/>
  <path d="M256 320h192v64H256zM576 320h192v64H576zM576 640h192v64H576zM256 640h192v64H256z" fill="currentColor"/>
  <path d="M614.4 384l-76.8 76.8v-60.8c0-17.6-14.4-32-32-32s-32 14.4-32 32v137.6c0 4.8 0 8 1.6 11.2 1.6 8 8 14.4 16 19.2 4.8 1.6 9.6 3.2 14.4 3.2h137.6c17.6 0 32-14.4 32-32s-14.4-32-32-32h-60.8l76.8-76.8c12.8-12.8 12.8-32 0-44.8-12.8-12.8-32-12.8-44.8-1.6z" fill="currentColor"/>
</svg> 