<?xml version="1.0" encoding="UTF-8"?>
<svg width="128" height="128" viewBox="0 0 1024 1024" xmlns="http://www.w3.org/2000/svg">
  <path d="M512 128c-212.1 0-384 171.9-384 384v360c0 13.3 10.7 24 24 24h184c35.3 0 64-28.7 64-64V448c0-35.3-28.7-64-64-64H200v-16c0-163.8 132.2-296 296-296s296 132.2 296 296v16H656c-35.3 0-64 28.7-64 64v384c0 35.3 28.7 64 64 64h184c13.3 0 24-10.7 24-24V512c0-212.1-171.9-384-384-384zM336 448v384H200V448h136zm388 384V448h136v384H724z"/>
  <path d="M512 320c-79.5 0-144 64.5-144 144s64.5 144 144 144 144-64.5 144-144-64.5-144-144-144zm0 224c-44.2 0-80-35.8-80-80s35.8-80 80-80 80 35.8 80 80-35.8 80-80 80z"/>
</svg> 