<?xml version="1.0" standalone="no"?>
<!DOCTYPE svg PUBLIC "-//W3C//DTD SVG 1.1//EN" "http://www.w3.org/Graphics/SVG/1.1/DTD/svg11.dtd">
<svg class="icon" width="200px" height="200.00px" viewBox="0 0 1024 1024" version="1.1" xmlns="http://www.w3.org/2000/svg">
  <path d="M512 85.333333c-235.637333 0-426.666667 191.029333-426.666667 426.666667S276.362667 938.666667 512 938.666667 938.666667 747.637333 938.666667 512 747.637333 85.333333 512 85.333333z m0 810.666667C300.32 896 128 723.68 128 512S300.32 128 512 128s384 172.32 384 384-172.32 384-384 384z" />
  <path d="M512 341.333333c-23.530667 0-42.666667 19.136-42.666667 42.666667v85.333333h85.333334v-85.333333c0-23.530667-19.136-42.666667-42.666667-42.666667zM512 256c-70.613333 0-128 57.386667-128 128v85.333333h256v-85.333333c0-70.613333-57.386667-128-128-128zM640 512H384a42.666667 42.666667 0 0 0-42.666667 42.666667v170.666666a42.666667 42.666667 0 0 0 42.666667 42.666667h256a42.666667 42.666667 0 0 0 42.666667-42.666667v-170.666666a42.666667 42.666667 0 0 0-42.666667-42.666667z m-42.666667 170.666667h-170.666666v-85.333334h170.666666v85.333334z" />
</svg> 