<?xml version="1.0" encoding="UTF-8"?>
<svg width="128" height="128" viewBox="0 0 1024 1024" xmlns="http://www.w3.org/2000/svg">
  <path d="M800 480h-96V192a32 32 0 0 0-32-32H352a32 32 0 0 0-32 32v288h-96a32 32 0 0 0-32 32v320a32 32 0 0 0 32 32h576a32 32 0 0 0 32-32V512a32 32 0 0 0-32-32zM384 224h256v256H384V224z m352 576H288V544h448v256z" fill="currentColor"/>
  <path d="M384 352h256v64H384z" fill="currentColor"/>
  <path d="M448 608h128v64H448zM448 704h128v64H448z" fill="currentColor"/>
</svg> 