<?xml version="1.0" standalone="no"?>
<!DOCTYPE svg PUBLIC "-//W3C//DTD SVG 1.1//EN" "http://www.w3.org/Graphics/SVG/1.1/DTD/svg11.dtd">
<svg class="icon" width="200px" height="200.00px" viewBox="0 0 1024 1024" version="1.1" xmlns="http://www.w3.org/2000/svg">
  <path d="M832 256h-128V128c0-35.2-28.8-64-64-64H384c-35.2 0-64 28.8-64 64v128H192c-35.2 0-64 28.8-64 64v576c0 35.2 28.8 64 64 64h640c35.2 0 64-28.8 64-64V320c0-35.2-28.8-64-64-64z m-448-64h256v64H384v-64z m448 640H192V320h128v64h384v-64h128v512z" />
  <path d="M383.808 512h256.384c17.696 0 32-14.336 32-32s-14.304-32-32-32H383.808c-17.696 0-32 14.336-32 32s14.304 32 32 32zM640.192 640H383.808c-17.696 0-32 14.336-32 32s14.304 32 32 32h256.384c17.696 0 32-14.336 32-32s-14.304-32-32-32z" />
</svg> 