<?xml version="1.0" encoding="UTF-8"?>
<svg width="128" height="128" viewBox="0 0 1024 1024" xmlns="http://www.w3.org/2000/svg">
  <path d="M512 128c-212 0-384 172-384 384s172 384 384 384 384-172 384-384-172-384-384-384z m0 704c-176.8 0-320-143.2-320-320S335.2 192 512 192s320 143.2 320 320-143.2 320-320 320z" fill="currentColor"/>
  <path d="M512 320c-17.6 0-32 14.4-32 32v192c0 17.6 14.4 32 32 32s32-14.4 32-32V352c0-17.6-14.4-32-32-32zM512 640m-32 0a32 32 0 1 0 64 0 32 32 0 1 0-64 0Z" fill="currentColor"/>
</svg> 