<?xml version="1.0" standalone="no"?>
<!DOCTYPE svg PUBLIC "-//W3C//DTD SVG 1.1//EN" "http://www.w3.org/Graphics/SVG/1.1/DTD/svg11.dtd">
<svg class="icon" width="200px" height="200.00px" viewBox="0 0 1024 1024" version="1.1" xmlns="http://www.w3.org/2000/svg">
  <path d="M896 153.6H128c-42.368 0-76.8 34.432-76.8 76.8v512c0 42.368 34.432 76.8 76.8 76.8h768c42.368 0 76.8-34.432 76.8-76.8V230.4c0-42.368-34.432-76.8-76.8-76.8z m-768 51.2h768c14.114 0 25.6 11.486 25.6 25.6v179.2H102.4V230.4c0-14.114 11.486-25.6 25.6-25.6z m768 563.2H128c-14.114 0-25.6-11.486-25.6-25.6V460.8h819.2v281.6c0 14.114-11.486 25.6-25.6 25.6z" />
  <path d="M256 256h51.2v102.4H256zM358.4 256h51.2v102.4h-51.2zM460.8 256H512v102.4h-51.2zM563.2 256h51.2v102.4h-51.2zM665.6 256h51.2v102.4h-51.2zM768 256h51.2v102.4H768zM204.8 512h256v51.2h-256zM204.8 614.4h256v51.2h-256zM716.8 512h153.6v51.2h-153.6zM716.8 614.4h153.6v51.2h-153.6z" />
</svg> 