<?xml version="1.0" encoding="UTF-8"?>
<svg width="128" height="128" viewBox="0 0 1024 1024" xmlns="http://www.w3.org/2000/svg">
  <path d="M768 270.016v-76.032A64 64 0 0 0 704 128H320a64 64 0 0 0-64 65.984v76.032A128 128 0 0 0 128 384v384h64v64a64 64 0 0 0 64 64h64a64 64 0 0 0 64-64v-64h256v64a64 64 0 0 0 64 64h64a64 64 0 0 0 64-64v-64h64V384a128 128 0 0 0-128-113.984zM320 193.984A8 8 0 0 1 328 192h368a8 8 0 0 1 8 1.984v76.032c-12.576-1.632-25.344-2.016-38.4-2.016H358.4c-13.056 0-25.824 0.384-38.4 2.016V193.984zM319.68 704A63.68 63.68 0 1 1 320 576.64 64 64 0 0 1 319.68 704z m388.64 0A63.68 63.68 0 1 1 708.32 576a64 64 0 0 1 0 128zM830.592 448H193.408c6.528-43.072 43.648-76.992 88.576-80.992 5.312-0.448 128.192-8.928 227.904-10.656 118.656-2.08 218.944 10.656 218.944 10.656 45.632 3.616 83.84 33.92 93.952 80.992z" fill="currentColor"/>
</svg> 